<?xml version="1.0" encoding="UTF-8"?>
<svg width="1024" height="1024" viewBox="0 0 1024 1024" xmlns="http://www.w3.org/2000/svg">
  <defs>
    <linearGradient id="bgGrad1024" x1="0%" y1="0%" x2="100%" y2="100%">
      <stop offset="0%" style="stop-color:#667eea;stop-opacity:1" />
      <stop offset="100%" style="stop-color:#764ba2;stop-opacity:1" />
    </linearGradient>
    <linearGradient id="lineGrad1024" x1="0%" y1="0%" x2="100%" y2="0%">
      <stop offset="0%" style="stop-color:#f093fb;stop-opacity:1" />
      <stop offset="100%" style="stop-color:#f5576c;stop-opacity:1" />
    </linearGradient>
    <filter id="shadow1024" x="-20%" y="-20%" width="140%" height="140%">
      <feDropShadow dx="0" dy="2" stdDeviation="3" flood-opacity="0.3"/>
    </filter>
  </defs>
  
  <!-- 背景 -->
  <rect x="0" y="0" width="1024" height="1024" rx="204.8" ry="204.8" fill="url(#bgGrad1024)" filter="url(#shadow1024)"/>
  
  <!-- 坐标轴 -->
  <line x1="102.4" y1="512" x2="921.6" y2="512" stroke="rgba(255,255,255,0.4)" stroke-width="15.36" stroke-linecap="round"/>
  <line x1="512" y1="102.4" x2="512" y2="921.6" stroke="rgba(255,255,255,0.4)" stroke-width="15.36" stroke-linecap="round"/>
  
  <!-- 抛物线 -->
  <path d="M 102.39999999999998,375.4666666666667 L 143.35999999999996,427.34933333333333 L 184.31999999999994,473.77066666666667 L 225.28000000000003,514.7306666666667 L 266.24,550.2293333333333 L 307.2,580.2666666666667 L 348.15999999999997,604.8426666666667 L 389.12,623.9573333333333 L 430.08000000000004,637.6106666666667 L 471.04,645.8026666666667 L 512,648.5333333333333 L 552.96,645.8026666666667 L 593.92,637.6106666666667 L 634.88,623.9573333333333 L 675.8399999999999,604.8426666666667 L 716.8,580.2666666666667 L 757.76,550.2293333333333 L 798.72,514.7306666666667 L 839.6800000000001,473.77066666666667 L 880.64,427.34933333333333 L 921.6,375.4666666666667" fill="none" stroke="url(#lineGrad1024)" stroke-width="40.96" stroke-linecap="round" stroke-linejoin="round"/>
  
  <!-- 数据点 -->
  <circle cx="512" cy="648.5333333333333" r="40.96" fill="#fff"/>
</svg>